# AST/ASF file generated using VICON BodyLanguage
# -----------------------------------------------
:version 1.10
:name VICON
:units
  mass 1.0
  length 0.45
  angle deg
:documentation
   .ast/.asf automatically generated from VICON data using
   VICON BodyBuilder and BodyLanguage model FoxedUp or BRILLIANT.MOD
:root
   order TX TY TZ RX RY RZ
   axis XYZ
   position 0 0 0  
   orientation 0 0 0 
:bonedata
  begin
     id 1 
     name lhipjoint
     direction 0.597014 -0.743513 0.301268 
     length 2.48253 
     axis 0 0 0  XYZ
  end
  begin
     id 2 
     name lfemur
     direction 0.34202 -0.939693 0  
     length 7.51389  
     axis 0 0 20  XYZ
    dof rx ry rz
    limits (-160.0 20.0)
           (-70.0 70.0)
           (-60.0 70.0)
  end
  begin
     id 3 
     name ltibia
     direction 0.34202 -0.939693 0   
     length 7.54147   
     axis 0 0 20   XYZ
    dof rx
    limits (-10.0 170.0)
  end
  begin
     id 4 
     name lfoot
     direction 0.10378 -0.285133 0.952853   
     length 2.2132   
     axis -90 7.62852e-016 20   XYZ
    dof rx rz
    limits (-45.0 90.0)
           (-70.0 20.0)
  end
  begin
     id 5 
     name ltoes
     direction 1.5354e-011 -4.2171e-011 1   
     length 1.10362   
     axis -90 7.62852e-016 20   XYZ
    dof rx
    limits (-90.0 20.0)
  end
  begin
     id 6 
     name rhipjoint
     direction -0.591912 -0.747009 0.302685   
     length 2.47092  
     axis 0 0 0  XYZ 
  end
  begin
     id 7 
     name rfemur
     direction -0.34202 -0.939693 0   
     length 7.69991   
     axis 0 0 -20   XYZ
    dof rx ry rz
    limits (-160.0 20.0)
           (-70.0 70.0)
           (-70.0 60.0)
  end
  begin
     id 8 
     name rtibia
     direction -0.34202 -0.939693 0   
     length 7.40774   
     axis 0 0 -20   XYZ
    dof rx
    limits (-10.0 170.0)
 end
 begin
     id 9 
     name rfoot
     direction -0.0916245 -0.251736 0.963449   
     length 2.08235  
     axis -90 -7.62852e-016 -20   XYZ
    dof rx rz
    limits (-45.0 90.0)
           (-20.0 70.0)
  end
  begin
     id 10 
     name rtoes
     direction -1.53527e-011 -4.21878e-011 1   
     length 1.04369   
     axis -90 -7.62852e-016 -20   XYZ
    dof rx
    limits (-90.0 20.0)
  end
  begin
     id 11 
     name lowerback
     direction -0.0122523 0.991496 -0.12956   
     length 2.10814   
     axis 0 0 0   XYZ
    dof rx ry rz
    limits (-20.0 45.0)
           (-30.0 30.0)
           (-30.0 30.0)
  end
  begin
     id 12 
     name upperback
     direction 0.012378 0.999784 -0.0167122   
     length 2.11728   
     axis 0 0 0   XYZ
    dof rx ry rz
    limits (-20.0 45.0)
           (-30.0 30.0)
           (-30.0 30.0)
  end
  begin
     id 13 
     name thorax
     direction 0.0187236 0.998893 0.0431542   
     length 2.15267   
     axis 0 0 0   XYZ
    dof rx ry rz
    limits (-20.0 45.0)
           (-30.0 30.0)
           (-30.0 30.0)
  end
  begin
     id 14 
     name lowerneck
     direction 0.0165467 0.987304 0.157979   
     length 1.72129   
     axis 0 0 0   XYZ
    dof rx ry rz
    limits (-20.0 45.0)
           (-30.0 30.0)
           (-30.0 30.0)
  end
  begin
     id 15 
     name upperneck
     direction -0.0560236 0.986819 -0.151818   
     length 1.75382   
     axis 0 0 0   XYZ
    dof rx ry rz
    limits (-20.0 45.0)
           (-30.0 30.0)
           (-30.0 30.0)
  end
  begin
     id 16
     name head
     direction -0.0173602 0.99745 -0.0692312  
     length 1.76328  
     axis 0 0 0   XYZ
    dof rx ry rz
    limits (-20.0 45.0)
           (-30.0 30.0)
           (-30.0 30.0)
  end
  begin
     id 17 
     name lclavicle
     direction 0.957734 0.271724 -0.094399  
     length 3.5782  
     axis 0 0 0   XYZ
    dof ry rz
    limits (-20.0 10.0)
           (0.0 20.0)
  end
  begin
     id 18 
     name lhumerus
     direction 1 -4.48963e-011 1.21581e-027   
     length 5.25525   
     axis 180 -30 -90   XYZ
    dof rx ry rz
    limits (-60.0 90.0)
           (-90.0 90.0)
           (-90.0 90.0)
  end
  begin
     id 19
     name lradius
     direction 1 -4.48975e-011 3.71216e-028   
     length 3.35106   
     axis 180 -30 -90   XYZ
    dof rx
    limits (-10.0 170.0)
  end
  begin
     id 20
     name lwrist
     direction 1 -4.48957e-011 4.76535e-027   
     length 1.67553   
     axis -3.27501e-015 90 90   XYZ
    dof ry
    limits (-180.0 0.0)
 end
  begin
     id 21 
     name lhand
     direction 1 -4.49008e-011 9.52727e-027   
     length 0.574153   
     axis -6.08097e-015 90 90   XYZ
    dof rx rz
    limits (-90.0 90.0)
           (-45.0 45.0)
  end
  begin
     id 22 
     name lfingers
     direction 1 -4.48996e-011 1.90562e-026   
     length 0.462897   
     axis -1.21618e-014 90 90   XYZ
    dof rx
    limits (0.0 90.0)
  end
  begin
     id 23
     name lthumb
     direction 0.707107 -6.34908e-011 0.707107   
     length 0.66463   
     axis -90 45 -1.62303e-014   XYZ
    dof rx rz
    limits (-45.0 45.0)
           (-45.0 45.0)
  end
  begin
     id 24 
     name rclavicle
     direction -0.950439 0.29623 -0.0944132   
     length 3.45861  
     axis 0 0 0   XYZ 
    dof ry rz
    limits (-10.0 20.0)
           (-20.0 0.0)
  end
  begin
     id 25 
     name rhumerus
     direction -1 -4.48986e-011 1.25473e-027  
     length 5.33104   
     axis 180 30 90   XYZ
    dof rx ry rz
    limits (-90.0 60.0)
           (-90.0 90.0)
           (-90.0 90.0)
  end
  begin
     id 26 
     name rradius
     direction -1 -4.4894e-011 1.66273e-027   
     length 3.39883   
     axis 180 30 90   XYZ
    dof rx
    limits (-10.0 170.0)
  end
  begin
     id 27 
     name rwrist
     direction -1 -4.48946e-011 4.76572e-027   
     length 1.69941   
     axis -3.27501e-015 -90 -90   XYZ
    dof ry
    limits (-180.0 0.0)
  end
  begin
     id 28
     name rhand
     direction -1 -4.49028e-011 9.52595e-027   
     length 0.913886   
     axis -6.08097e-015 -90 -90   XYZ
    dof rx rz
    limits (-90.0 90.0)
           (-45.0 45.0)
  end
  begin
     id 29
     name rfingers
     direction -1 -4.48945e-011 1.9063e-026   
     length 0.736798   
     axis -1.21618e-014 -90 -90   XYZ
    dof rx
    limits (0.0 90.0)
  end
  begin
     id 30
     name rthumb
     direction -0.707107 -6.34966e-011 0.707107   
     length 1.0579   
     axis -90 -45 1.62303e-014   XYZ
    dof rx rz
    limits (-45.0 45.0)
           (-45.0 45.0)
  end
:hierarchy
  begin
    root lhipjoint rhipjoint lowerback
    lhipjoint lfemur
    lfemur ltibia
    ltibia lfoot
    lfoot ltoes
    rhipjoint rfemur
    rfemur rtibia
    rtibia rfoot
    rfoot rtoes
    lowerback upperback
    upperback thorax
    thorax lowerneck lclavicle rclavicle
    lowerneck upperneck
    upperneck head
    lclavicle lhumerus
    lhumerus lradius
    lradius lwrist
    lwrist lhand lthumb
    lhand lfingers
    rclavicle rhumerus
    rhumerus rradius
    rradius rwrist
    rwrist rhand rthumb
    rhand rfingers
  end

#!OML:ASF F:\VICON\USERDATA\INSTALL\rory3\rory3.ASF
:FULLY-SPECIFIED
:DEGREES
1085
root 4.02072 17.0757 44.7435 -543.371 30.1308 -537.239
lowerback 15.8022 0.76695 2.78244
upperback 4.89383 2.05053 1.68342
thorax -3.62704 1.23251 -0.197728
lowerneck -14.0519 14.0014 7.66628
upperneck 7.31339 19.8934 -15.7532
head 6.92422 9.06358 -3.85274
rclavicle 1.98785e-014 1.07344e-014
rhumerus -31.8073 4.71239 -78.3645
rradius 82.4635
rwrist -48.2649
rhand -20.4057 356.819
rfingers 7.12502
rthumb 5.94809 -753.078
lclavicle 1.98785e-014 1.07344e-014
lhumerus -25.5295 3.29257 77.5534
lradius 101.515
lwrist 27.4119
lhand -23.117 35.0236
lfingers 7.12502
lthumb 3.33015 64.9773
rfemur -8.77135 -5.69716 19.4699
rtibia 40.6687
rfoot -18.4265 -10.9427
rtoes -19.2391
lfemur -19.3036 -3.29815 -13.9792
ltibia 70.046
lfoot -1.08285 -8.96119
ltoes -14.4573
1086
root 4.21156 17.1221 44.5813 -543.195 28.5464 -537.272
lowerback 16.2192 1.0901 2.59333
upperback 4.49489 2.44569 1.67674
thorax -4.2706 1.4038 -0.192147
lowerneck -15.1418 13.851 7.7376
upperneck 8.53856 19.7481 -15.3844
head 7.44736 8.90066 -3.68187
rclavicle -8.27938e-014 1.90833e-014
rhumerus -33.8022 3.15295 -77.4944
rradius 79.6373
rwrist -49.1182
rhand -20.4297 356.128
rfingers 7.12502
rthumb 5.92496 -753.769
lclavicle -8.27938e-014 1.90833e-014
lhumerus -27.2081 4.91978 75.7014
lradius 101.207
lwrist 26.6797
lhand -24.2742 35.0456
lfingers 7.12502
lthumb 2.21255 65.0139
rfemur -7.44682 -5.47884 19.8415
rtibia 39.9684
rfoot -19.2822 -11.845
rtoes -15.8134
lfemur -20.3522 -2.57953 -14.4807
ltibia 68.5266
lfoot -1.05335 -7.96464
ltoes -3.78237
1087
root 4.39168 17.1813 44.3967 -542.947 26.8539 -537.287
lowerback 15.6968 1.16416 2.59303
upperback 4.30779 2.5086 1.74171
thorax -4.18984 1.42496 -0.122321
lowerneck -14.5427 13.6741 7.3594
upperneck 8.32886 19.562 -15.2095
head 7.19947 8.86072 -3.64892
rclavicle 4.45278e-014 -5.56597e-015
rhumerus -35.7282 1.96687 -76.5237
rradius 76.6244
rwrist -50.1117
rhand -20.1602 356.078
rfingers 7.12502
rthumb 6.18513 -753.811
lclavicle 4.45278e-014 -5.56597e-015
lhumerus -28.9675 6.6415 73.9307
lradius 100.541
lwrist 26.0681
lhand -25.6422 35.2232
lfingers 7.12502
lthumb 0.891309 65.2011
rfemur -5.97023 -5.68156 20.2358
rtibia 38.9503
rfoot -19.0299 -13.5739
rtoes -19.1668
lfemur -21.1944 -2.0754 -15.1077
ltibia 66.0789
lfoot -3.89119 -6.02945
ltoes -11.4821
1088
root 4.56955 17.3373 44.1788 -542.865 25.2559 -537.821
lowerback 14.9837 1.36065 2.36608
upperback 4.33389 2.67418 1.42488
thorax -3.76988 1.50703 -0.331612
lowerneck -14.994 13.593 7.42052
upperneck 8.59455 19.4179 -15.0245
head 7.32869 8.76848 -3.59199
rclavicle 6.03311e-014 -2.8625e-014
rhumerus -37.357 -0.0319887 -75.7722
rradius 73.5025
rwrist -51.4657
rhand -20.0039 356.071
rfingers 7.12502
rthumb 6.33606 -753.814
lclavicle 6.03311e-014 -2.8625e-014
lhumerus -30.6206 7.62454 71.973
lradius 100.138
lwrist 25.2048
lhand -23.9146 33.9111
lfingers 7.12502
lthumb 2.55987 63.8755
rfemur -4.49613 -4.68606 19.7466
rtibia 37.9529
rfoot -21.5325 -10.7957
rtoes 1.92127
lfemur -21.2882 -1.9299 -16.4225
ltibia 62.2627
lfoot -6.2073 -5.30376
ltoes -18.5744
1089
root 4.70868 17.3561 43.9613 -542.78 24.1073 -538.318
lowerback 14.5087 1.60261 2.2898
upperback 4.23762 2.9307 1.11297
thorax -3.59654 1.62627 -0.642848
lowerneck -15.2684 13.5813 7.19391
upperneck 8.91133 19.3989 -14.5957
head 7.40205 8.75085 -3.41134
rclavicle 1.73937e-014 2.38542e-015
rhumerus -39.1026 -1.76746 -74.9742
rradius 70.3946
rwrist -52.9353
rhand -20.0069 356.046
rfingers 7.12502
rthumb 6.33313 -753.84
lclavicle 1.73937e-014 2.38542e-015
lhumerus -32.6536 8.21594 70.0761
lradius 99.734
lwrist 24.9615
lhand -23.189 33.0615
lfingers 7.12502
lthumb 3.26061 63.0163
rfemur -3.53145 -6.48371 19.4123
rtibia 37.3252
rfoot -18.2071 -13.8376
rtoes -20.653
lfemur -21.5227 -1.81233 -17.6692
ltibia 58.3981
lfoot -7.40451 -5.53147
ltoes -19.8507
1090
root 4.83602 17.4758 43.7169 -542.656 23.2299 -538.192
lowerback 13.9934 1.75566 2.77048
upperback 4.34243 3.18374 1.06014
thorax -3.17339 1.76092 -0.98383
lowerneck -15.5213 13.6848 6.99973
upperneck 9.11182 19.5884 -14.4624
head 7.4953 8.82603 -3.2933
rclavicle -3.598e-014 1.59028e-015
rhumerus -40.729 -2.87086 -74.2311
rradius 67.9219
rwrist -54.2352
rhand -13.8312 355.026
rfingers 7.12502
rthumb 12.2919 -754.593
lclavicle -3.598e-014 1.59028e-015
lhumerus -34.4825 9.04504 68.511
lradius 99.2134
lwrist 24.8893
lhand -23.0889 32.9788
lfingers 7.12502
lthumb 3.3572 62.9321
rfemur -2.56361 -6.96553 19.2921
rtibia 37.425
rfoot -16.0011 -13.5644
rtoes -26.6904
lfemur -21.135 -2.01654 -18.2499
ltibia 53.984
lfoot -8.1177 -5.71218
ltoes -19.1212
1091
root 4.9377 17.4807 43.479 -542.756 21.6115 -538.422
lowerback 13.5565 1.67104 2.96489
upperback 4.44323 3.08571 1.01005
thorax -2.82222 1.72339 -1.10694
lowerneck -15.747 13.7636 6.80563
upperneck 9.36201 19.7918 -14.4556
head 7.61699 8.90129 -3.21105
rclavicle 1.42131e-014 9.54166e-015
rhumerus -42.4633 -3.86303 -73.3583
rradius 66.132
rwrist -54.9924
rhand -20.9034 355.346
rfingers 7.12502
rthumb 5.46764 -754.564
lclavicle 1.42131e-014 9.54166e-015
lhumerus -36.3414 9.70767 67.3777
lradius 98.4954
lwrist 24.1927
lhand -23.5182 32.6718
lfingers 7.12502
lthumb 2.94267 62.6312
rfemur -1.91649 -8.52049 18.5044
rtibia 38.348
rfoot -16.2772 -11.3915
rtoes -18.1235
lfemur -19.4172 -3.75584 -18.992
ltibia 50.0193
lfoot -10.76 -5.32057
ltoes -11.8473
1092
root 5.03555 17.4948 43.248 -542.868 20.821 -538.672
lowerback 13.7064 1.94156 2.82644
upperback 4.17098 3.4235 1.18468
thorax -3.19443 1.87211 -0.915024
lowerneck -15.4569 13.7465 6.3881
upperneck 9.78353 19.9915 -14.4343
head 7.68386 8.99406 -3.12198
rclavicle -5.97348e-014 -3.97569e-016
rhumerus -44.7665 -4.63752 -71.9712
rradius 64.9301
rwrist -56.1674
rhand -20.8151 354.798
rfingers 7.12502
rthumb 5.5529 -755.109
lclavicle -5.97348e-014 -3.97569e-016
lhumerus -39.1219 10.3036 66.6449
lradius 97.9749
lwrist 23.526
lhand -23.1591 31.6824
lfingers 7.12502
lthumb 3.28945 61.6367
rfemur -1.87785 -9.70475 17.5679
rtibia 40.2448
rfoot -13.4807 -10.1166
rtoes -28.3737
lfemur -17.8575 -5.00133 -19.7384
ltibia 46.2848
lfoot -12.2576 -4.45618
ltoes -9.52515
1093
root 5.12882 17.5204 43.0076 -542.871 20.8599 -538.647
lowerback 13.3805 2.35568 3.01985
upperback 3.96178 3.96786 1.30326
thorax -3.21416 2.12766 -0.973479
lowerneck -13.9855 13.814 6.48397
upperneck 9.54809 20.2255 -14.8159
head 7.43859 9.18525 -3.3094
rclavicle -3.26007e-014 3.02153e-014
rhumerus -46.9461 -5.04244 -70.8324
rradius 63.911
rwrist -57.7
rhand -21.1184 354.272
rfingers 7.12502
rthumb 5.25999 -755.642
lclavicle -3.26007e-014 3.02153e-014
lhumerus -41.8028 10.9087 65.6696
lradius 97.3882
lwrist 23.3087
lhand -23.0519 30.9183
lfingers 7.12502
lthumb 3.39295 60.8711
rfemur -2.51441 -10.2348 16.8507
rtibia 43.1501
rfoot -12.1438 -7.93075
rtoes -29.5624
lfemur -16.4242 -5.61483 -20.1772
ltibia 43.3668
lfoot -13.4312 -3.06627
ltoes -12.8438
1094
root 5.22216 17.5221 42.8013 -543.168 20.517 -539.285
lowerback 13.5253 2.57808 2.38317
upperback 4.16671 4.19403 1.19936
thorax -3.10701 2.2526 -0.762388
lowerneck -14.3583 14.3272 6.5388
upperneck 9.47282 21.0011 -15.1592
head 7.60938 9.52703 -3.26757
rclavicle 2.75317e-014 2.98177e-014
rhumerus -47.8213 -5.93011 -69.9989
rradius 63.0077
rwrist -58.5669
rhand -21.6897 354.368
rfingers 7.12502
rthumb 4.7084 -755.56
lclavicle 2.75317e-014 2.98177e-014
lhumerus -43.2846 12.1856 64.7459
lradius 96.6164
lwrist 23.2928
lhand -22.6478 30.0347
lfingers 7.12502
lthumb 3.78321 59.9808
rfemur -3.49559 -11.0004 15.4798
rtibia 46.5839
rfoot -10.6208 -5.75469
rtoes -24.8834
lfemur -15.1554 -6.18418 -21.1076
ltibia 41.2047
lfoot -14.0279 -2.20719
ltoes -13.9717
